# xmcd
#
# Track frame offsets: 
#        150
#        13172
#        25530
#        39852
#        52789
#        69392
#        79860
#        93300
#        105345
#        119345
#        133217
#        144052
#        157527
#        170977
#        184647
#        195772
#        207840
#        221687
#        235170
#        248105
#        261382
#        275350
#        288840
#        302935
#        316672
#
# Disc length: 4385 seconds
#
# Revision: 1
# Processed by: cddbd v1.5.2PL0 Copyright (c) Steve Scherf et al.
# Submitted via: ExactAudioCopy v0.99pb4
#
DISCID=47111f19
DTITLE=Compilation - Prayers From Hell
DYEAR=1999
DGENRE=Gospel
TTITLE0=Carolina Ramblers String Band - That Lonesome Valley
TTITLE1=The Monroe Brothers - Am Ready To Go
TTITLE2=The Carter Family - Church In The Wildwood
TTITLE3=Dock Boggs - New Prisoner's Song
TTITLE4=Dixon Brothers - Didn't Hear Nobody Pray
TTITLE5=Bill Carlisle - The Heavenly Train
TTITLE6=Frank Hutchison - Hell Bound Train
TTITLE7=Byron Parker and His Mountaineers - We Shall Rise
TTITLE8=Dock Boggs - Down South Blues
TTITLE9=Edith and Sherman Collins - What Will You Take In Exchange
TTITLE10=Dorsey and Beatrice Dixon - Shining City Over The River
TTITLE11=Rodgers and Nicholson - Worried Man Blues
TTITLE12=The Carter Family - It Is Better Farther On
TTITLE13=Dock Boggs - Country Blues
TTITLE14=The Monroe Brothers - What Would The Profit Be
TTITLE15=Bill Carlisle's Kentucky Boys - Unclouded Sky
TTITLE16=Frank Hutchison - Stackalee
TTITLE17=Dixon Brothers - When Gabriel Blows His Trumpet To Me
TTITLE18=Byron Parker and His Mountaineers - Love My Savior
TTITLE19=Dock Boggs - Sugar Baby
TTITLE20=Bill Carlisle - He Will Be Your Savior Too
TTITLE21=Ledford and Daniel Nicholson - Ninety Nine Years
TTITLE22=Dorsey and Beatrice Dixon - When Jesus Appears
TTITLE23=Dock Boggs - Pretty Polly
TTITLE24=Edith and Sherman Collins - Can't Feel At Home In This World 
TTITLE24=Any More
EXTD=
EXTT0=
EXTT1=
EXTT2=
EXTT3=
EXTT4=
EXTT5=
EXTT6=
EXTT7=
EXTT8=
EXTT9=
EXTT10=
EXTT11=
EXTT12=
EXTT13=
EXTT14=
EXTT15=
EXTT16=
EXTT17=
EXTT18=
EXTT19=
EXTT20=
EXTT21=
EXTT22=
EXTT23=
EXTT24=
PLAYORDER=
